<!DOCTYPE svg PUBLIC "-//W3C//DTD SVG 20010904//EN" "http://www.w3.org/TR/2001/REC-SVG-20010904/DTD/svg10.dtd">
<svg version="1.0" xmlns="http://www.w3.org/2000/svg" width="65px" height="77px" viewBox="0 0 650 770" preserveAspectRatio="xMidYMid meet">
<g id="layer101" fill="#353335" stroke="none">
<path d="M164 638 c-129 -134 -134 -148 -134 -365 0 -118 3 -164 13 -170 6 -4 65 -20 130 -34 l117 -26 0 34 c0 28 3 33 24 33 21 0 25 -6 28 -32 2 -27 7 -32 23 -30 39 6 45 12 45 42 0 20 5 30 15 30 9 0 15 -10 15 -26 0 -23 3 -25 33 -22 28 3 33 7 37 37 7 45 30 54 30 12 0 -34 22 -42 54 -18 16 12 17 29 14 173 -3 151 -4 162 -32 217 -30 62 -197 247 -222 247 -11 0 -14 -22 -14 -104 0 -95 -2 -104 -20 -109 -19 -5 -20 0 -20 88 0 100 -5 125 -25 125 -6 0 -56 -46 -111 -102z"/>
</g>
<g id="layer102" fill="#293175" stroke="none">
<path d="M164 638 c-129 -134 -134 -148 -134 -365 0 -118 3 -164 13 -170 6 -4 65 -20 130 -34 l117 -26 0 34 c0 28 3 33 24 33 21 0 25 -6 28 -32 2 -27 7 -32 23 -30 39 6 45 12 45 42 0 20 5 30 15 30 9 0 15 -10 15 -26 0 -23 3 -25 33 -22 28 3 33 7 37 37 7 45 30 54 30 12 0 -34 22 -42 54 -18 16 12 17 29 14 173 -3 151 -4 162 -32 217 -30 62 -197 247 -222 247 -11 0 -14 -22 -14 -104 0 -95 -2 -104 -20 -109 -19 -5 -20 0 -20 88 0 100 -5 125 -25 125 -6 0 -56 -46 -111 -102z m211 -228 c38 -42 -18 -105 -61 -70 -19 16 -18 49 3 72 21 23 36 23 58 -2z"/>
</g>
<g id="layer103" fill="#2f3d84" stroke="none">
<path d="M225 700 c-21 -22 -35 -40 -29 -40 6 0 25 16 44 35 18 19 37 32 42 29 5 -3 6 -53 3 -111 l-5 -105 25 6 c14 4 25 3 25 -2 0 -17 -12 -20 -45 -9 l-34 10 -3 74 -3 74 -57 -56 c-31 -30 -66 -75 -78 -100 -12 -25 -27 -45 -33 -45 -7 0 -5 -5 3 -10 12 -8 10 -10 -8 -10 -20 0 -22 4 -16 23 14 46 43 93 84 136 23 24 39 45 37 47 -11 11 -114 -117 -130 -162 -22 -62 -26 -367 -4 -381 6 -4 65 -20 130 -34 l117 -26 0 34 c0 28 3 33 24 33 21 0 25 -6 28 -32 2 -27 7 -32 23 -30 39 6 45 12 45 42 0 20 5 30 15 30 9 0 15 -10 15 -26 0 -23 3 -25 33 -22 28 3 33 7 37 37 7 45 30 54 30 12 0 -34 22 -42 54 -18 16 12 17 29 14 173 -3 151 -4 162 -32 217 -30 62 -197 247 -222 247 -11 0 -14 -22 -14 -104 0 -95 -2 -104 -20 -109 -19 -5 -20 0 -20 88 0 140 -10 152 -75 85z m341 -200 c16 -30 19 -62 22 -212 3 -168 3 -178 -15 -178 -15 0 -21 12 -29 55 -5 30 -7 55 -3 55 10 0 -10 78 -31 125 -10 22 -22 54 -26 70 -4 17 -8 33 -9 38 -2 4 -3 11 -4 16 -3 22 -66 56 -113 60 -5 1 -8 47 -8 104 l0 102 99 -100 c54 -56 107 -116 117 -135z m-191 -90 c38 -42 -18 -105 -61 -70 -19 16 -18 49 3 72 21 23 36 23 58 -2z"/>
</g>
<g id="layer104" fill="#3c457d" stroke="none">
<path d="M225 700 c-21 -22 -35 -40 -29 -40 6 0 25 16 44 35 18 19 37 32 42 29 4 -3 8 -52 8 -110 l0 -104 25 6 c19 5 25 2 25 -10 0 -8 -11 -18 -25 -22 -13 -3 -29 -12 -36 -20 -24 -29 -29 -11 -29 93 l0 107 -56 -54 c-62 -62 -82 -93 -104 -164 -19 -62 -40 -72 -40 -20 0 50 30 109 85 168 25 26 44 50 42 52 -11 12 -114 -117 -130 -162 -22 -62 -26 -367 -4 -381 6 -4 65 -20 130 -34 l117 -26 0 34 c0 28 3 33 24 33 21 0 25 -6 28 -32 2 -27 7 -32 23 -30 39 6 45 12 45 42 0 20 5 30 15 30 9 0 15 -10 15 -26 0 -23 3 -25 33 -22 28 3 33 7 37 37 7 45 30 54 30 12 0 -34 22 -42 54 -18 16 12 17 29 14 173 -3 151 -4 162 -32 217 -30 62 -197 247 -222 247 -11 0 -14 -22 -14 -104 0 -95 -2 -104 -20 -109 -19 -5 -20 0 -20 88 0 140 -10 152 -75 85z m342 -209 c25 -51 27 -65 30 -200 2 -164 0 -181 -28 -181 -15 0 -19 7 -19 31 0 26 -3 29 -20 24 -19 -6 -25 3 -21 29 3 14 -21 36 -33 30 -6 -3 -1 3 10 13 22 18 24 55 5 61 -8 3 -8 10 0 23 7 14 7 34 -1 67 -6 26 -12 53 -13 59 -6 26 -52 64 -89 73 l-38 11 0 102 0 102 95 -95 c63 -62 105 -114 122 -149z m-192 -81 c38 -42 -18 -105 -61 -70 -19 16 -18 49 3 72 21 23 36 23 58 -2z m122 -312 c-3 -8 -6 -5 -6 6 -1 11 2 17 5 13 3 -3 4 -12 1 -19z"/>
</g>
<g id="layer105" fill="#364f92" stroke="none">
<path d="M340 636 c0 -91 -2 -105 -17 -109 -17 -4 -17 -5 0 -6 26 -2 22 -41 -5 -41 -12 0 -30 -8 -41 -17 -15 -13 -21 -15 -24 -5 -3 6 -10 9 -16 6 -8 -5 -8 -2 1 7 8 8 12 45 12 103 l0 90 -51 -49 c-60 -60 -88 -102 -109 -169 -21 -62 -40 -72 -40 -19 1 51 28 107 85 173 l47 55 -58 -60 c-84 -87 -94 -120 -94 -322 0 -118 3 -164 13 -170 6 -4 65 -20 130 -34 l117 -26 0 34 c0 28 3 33 24 33 21 0 25 -6 28 -32 2 -27 7 -32 23 -30 39 6 45 12 45 42 0 20 5 30 15 30 9 0 15 -10 15 -26 0 -23 3 -25 33 -22 28 3 33 7 37 37 7 45 30 54 30 12 0 -34 22 -42 53 -18 16 11 17 30 14 162 l-3 150 -2 -151 -2 -152 -25 -4 c-22 -5 -25 -2 -25 23 0 22 -5 29 -20 29 -18 0 -25 11 -21 34 3 14 -21 36 -33 30 -6 -3 -1 3 10 13 22 18 24 55 5 61 -8 3 -8 10 0 23 7 14 7 34 -1 67 -6 26 -12 53 -13 59 -6 26 -52 64 -89 73 l-38 11 0 99 c0 55 3 100 6 100 3 0 49 -44 101 -97 53 -54 87 -87 77 -73 -34 47 -169 180 -181 180 -10 0 -13 -26 -13 -104z m35 -226 c38 -42 -18 -105 -61 -70 -19 16 -18 49 3 72 21 23 36 23 58 -2z m122 -312 c-3 -7 -5 -2 -5 12 0 14 2 19 5 13 2 -7 2 -19 0 -25z"/>
</g>
<g id="layer106" fill="#4b548d" stroke="none">
<path d="M225 700 c-21 -22 -34 -40 -27 -40 6 0 22 14 34 31 13 17 32 35 43 39 14 6 15 9 5 9 -9 1 -34 -17 -55 -39z"/>
<path d="M340 636 c0 -91 -2 -105 -17 -109 -17 -4 -17 -5 0 -6 28 -2 22 -41 -7 -41 -16 0 -31 -12 -47 -35 -13 -19 -28 -35 -32 -35 -17 0 -18 31 -3 55 12 18 16 48 16 112 l0 87 -54 -53 c-73 -73 -107 -137 -114 -217 -3 -44 -9 -64 -18 -64 -20 0 -28 64 -15 117 16 63 31 90 86 154 l47 54 -58 -60 c-84 -87 -94 -120 -94 -322 0 -118 3 -164 13 -170 6 -4 65 -20 130 -34 l117 -26 0 34 c0 28 3 33 24 33 21 0 25 -6 28 -32 2 -27 7 -32 23 -30 39 6 45 12 45 42 0 20 5 30 15 30 9 0 15 -10 15 -26 0 -23 3 -25 33 -22 28 3 33 7 37 37 7 45 30 54 30 12 0 -34 22 -42 53 -18 16 11 17 30 14 162 l-3 150 -2 -151 -2 -152 -25 -4 c-22 -5 -25 -2 -25 23 0 24 -4 29 -25 29 -22 0 -25 -4 -25 -34 0 -25 -5 -35 -20 -39 -17 -4 -20 0 -20 30 0 19 -4 32 -9 29 -5 -4 -7 3 -4 14 3 11 9 23 14 26 13 7 11 34 -2 34 -6 0 -17 7 -25 15 -14 13 -14 15 1 15 9 0 14 4 11 9 -3 5 4 11 16 14 12 4 19 9 16 12 -4 4 0 21 7 39 10 24 11 43 4 72 -5 21 -11 45 -12 51 -6 25 -52 64 -89 73 l-38 11 0 99 c0 55 3 100 6 100 3 0 49 -44 101 -97 53 -54 87 -87 77 -73 -34 47 -169 180 -181 180 -10 0 -13 -26 -13 -104z m35 -226 c38 -42 -18 -105 -61 -70 -19 16 -18 49 3 72 21 23 36 23 58 -2z"/>
<path d="M567 495 c9 -19 18 -33 21 -31 4 5 -26 66 -33 66 -3 0 3 -16 12 -35z"/>
<path d="M591 434 c0 -11 3 -14 6 -6 3 7 2 16 -1 19 -3 4 -6 -2 -5 -13z"/>
</g>
<g id="layer107" fill="#3d62a4" stroke="none">
<path d="M340 636 c0 -91 -2 -105 -17 -109 -17 -4 -17 -5 0 -6 24 -1 23 -41 -2 -41 -20 0 -40 -16 -66 -53 -12 -17 -17 -19 -27 -9 -10 10 -9 19 5 43 13 23 17 53 17 117 l-1 87 -64 -68 c-71 -76 -105 -148 -105 -222 0 -56 -26 -63 -36 -10 -13 74 18 154 93 239 35 39 32 37 -13 -9 -84 -86 -94 -120 -94 -322 0 -118 3 -164 13 -170 6 -4 65 -20 130 -34 l117 -26 0 34 c0 28 3 33 24 33 21 0 25 -6 28 -32 2 -27 7 -32 23 -30 39 6 45 12 45 42 0 20 5 30 15 30 9 0 15 -10 15 -26 0 -23 3 -25 33 -22 28 3 33 7 37 37 7 45 30 54 30 12 0 -34 22 -42 53 -18 16 11 17 30 14 162 l-3 150 -2 -152 c-1 -85 -6 -153 -11 -153 -5 0 -16 -3 -25 -6 -13 -5 -16 1 -16 25 0 26 -4 31 -25 31 -22 0 -25 -4 -25 -34 0 -25 -5 -35 -20 -39 -17 -4 -20 0 -20 30 0 19 -4 32 -9 29 -5 -4 -7 3 -4 14 3 11 9 23 14 26 13 7 11 34 -2 34 -6 0 -17 7 -25 15 -14 13 -14 15 1 15 9 0 14 4 11 9 -3 5 2 11 12 13 10 3 20 11 21 19 20 136 4 181 -76 219 l-53 25 0 98 c0 53 3 97 8 97 4 0 49 -43 101 -97 51 -54 85 -87 75 -73 -35 47 -169 180 -181 180 -10 0 -13 -26 -13 -104z m35 -226 c38 -42 -18 -105 -61 -70 -19 16 -18 49 3 72 21 23 36 23 58 -2z"/>
</g>
<g id="layer108" fill="#4772b3" stroke="none">
<path d="M340 636 c0 -91 -2 -105 -17 -109 -17 -4 -17 -5 0 -6 24 -1 23 -41 -2 -41 -10 0 -33 -16 -50 -35 -24 -27 -31 -45 -31 -75 0 -44 -9 -50 -28 -20 -16 26 -28 25 -36 -2 -5 -18 -8 -20 -15 -9 -7 11 -10 10 -14 -5 -4 -18 -5 -18 -5 1 -1 28 13 60 27 61 6 1 18 2 26 3 8 0 15 10 15 21 0 12 9 30 20 42 17 18 20 36 20 112 l0 90 -31 -30 c-60 -56 -109 -126 -124 -177 -13 -42 -14 -80 -9 -195 6 -133 8 -144 28 -152 19 -8 18 -9 -7 -9 -61 -2 -62 0 -62 191 0 197 5 214 92 312 35 39 32 37 -13 -9 -84 -86 -94 -120 -94 -322 0 -118 3 -164 13 -170 6 -4 65 -20 130 -34 l117 -26 0 34 c0 28 3 33 24 33 21 0 25 -6 28 -32 2 -27 7 -32 23 -30 39 6 45 12 45 42 0 20 5 30 15 30 9 0 15 -10 15 -26 0 -23 3 -25 33 -22 28 3 33 7 37 37 7 45 30 54 30 12 0 -34 22 -42 53 -18 16 11 17 30 14 162 l-3 150 -2 -152 c-1 -85 -6 -153 -11 -153 -5 0 -16 -3 -25 -6 -13 -5 -16 1 -16 25 0 17 -4 31 -9 31 -26 0 -41 -15 -41 -40 0 -26 -15 -40 -41 -40 -5 0 -8 12 -7 28 3 24 0 27 -26 25 -27 -2 -28 0 -22 28 3 17 2 38 -3 48 -6 10 -6 23 0 32 5 7 9 10 9 5 0 -5 18 9 40 32 36 36 40 46 40 89 -1 73 -26 114 -87 143 l-53 25 0 98 c0 53 3 97 8 97 4 0 49 -43 101 -97 51 -54 85 -87 75 -73 -35 47 -169 180 -181 180 -10 0 -13 -26 -13 -104z m35 -226 c38 -42 -18 -105 -61 -70 -19 16 -18 49 3 72 21 23 36 23 58 -2z m15 -332 c0 -11 -7 -18 -20 -18 -13 0 -20 7 -20 18 0 11 7 18 20 18 13 0 20 -7 20 -18z"/>
</g>
<g id="layer109" fill="#4c82c3" stroke="none">
<path d="M340 636 c0 -91 -2 -105 -17 -109 -17 -4 -17 -5 0 -6 24 -1 23 -41 -2 -41 -10 0 -33 -16 -51 -37 -28 -31 -32 -42 -27 -78 4 -38 2 -42 -14 -38 -11 3 -19 12 -19 19 0 8 -7 14 -15 14 -10 0 -15 -10 -15 -30 0 -33 -11 -38 -30 -15 -9 11 -10 25 -4 46 5 17 11 29 14 28 11 -6 50 23 50 37 0 8 9 24 20 36 17 18 20 36 20 112 l0 90 -45 -44 c-110 -108 -128 -164 -119 -362 6 -119 9 -138 24 -138 9 0 25 -7 36 -15 18 -15 16 -15 -26 -10 -89 13 -82 -5 -78 193 4 201 9 219 95 316 35 39 32 37 -13 -9 -84 -86 -94 -120 -94 -322 0 -118 3 -164 13 -170 6 -4 65 -20 130 -34 l117 -26 0 34 c0 28 3 33 24 33 21 0 25 -6 28 -32 2 -27 7 -32 23 -30 39 6 45 12 45 42 0 20 5 30 15 30 9 0 15 -10 15 -26 0 -23 3 -25 33 -22 28 3 33 7 37 37 7 45 30 54 30 12 0 -34 22 -42 53 -18 16 11 17 30 14 162 l-3 150 -2 -152 c-1 -85 -6 -153 -11 -153 -5 0 -16 -3 -25 -6 -13 -5 -16 1 -16 25 0 17 -4 31 -9 31 -26 0 -41 -15 -41 -40 0 -25 -15 -40 -41 -40 -5 0 -9 14 -9 30 0 32 -9 36 -41 20 -12 -7 -19 -21 -19 -40 0 -24 -4 -30 -21 -30 -18 0 -21 5 -17 34 3 24 0 32 -8 29 -8 -3 -11 2 -7 16 3 12 9 21 13 21 5 0 7 13 5 30 -4 26 1 32 42 52 67 33 93 69 93 126 -1 72 -26 113 -87 142 l-53 25 0 98 c0 53 3 97 8 97 4 0 49 -43 101 -97 51 -54 85 -87 75 -73 -35 47 -169 180 -181 180 -10 0 -13 -26 -13 -104z m35 -226 c38 -42 -18 -105 -61 -70 -19 16 -18 49 3 72 21 23 36 23 58 -2z m-48 -177 c-4 -3 -10 -3 -14 0 -3 4 0 7 7 7 7 0 10 -3 7 -7z m-50 -170 c-3 -3 -11 -2 -18 3 -7 4 -28 8 -47 10 -52 5 -51 13 2 12 26 0 50 3 54 7 4 4 9 -1 10 -10 2 -9 1 -19 -1 -22z"/>
</g>
<g id="layer110" fill="#6d77aa" stroke="none">
<path d="M225 698 l-40 -43 40 36 c22 20 47 39 55 42 13 5 13 6 0 6 -9 1 -34 -18 -55 -41z"/>
<path d="M340 636 c0 -91 -2 -105 -17 -109 -17 -4 -17 -5 0 -6 24 -1 23 -41 -2 -41 -26 0 -81 -65 -81 -97 0 -37 36 -90 70 -102 20 -7 30 -17 30 -30 0 -26 -3 -26 -57 0 -33 16 -48 32 -64 65 -11 25 -24 42 -29 39 -15 -10 -13 -245 3 -250 40 -13 52 -10 51 15 -2 32 11 40 64 40 41 0 42 1 42 33 0 29 5 34 45 50 65 27 95 67 95 125 -1 72 -26 113 -87 142 l-53 25 0 98 c0 53 3 97 8 97 4 0 49 -43 101 -97 51 -54 85 -87 75 -73 -35 47 -169 180 -181 180 -10 0 -13 -26 -13 -104z m35 -226 c38 -42 -18 -105 -61 -70 -19 16 -18 49 3 72 21 23 36 23 58 -2z"/>
<path d="M294 615 c0 -60 1 -84 3 -52 2 32 2 81 0 110 -2 29 -3 3 -3 -58z"/>
<path d="M185 598 c-92 -99 -100 -126 -98 -297 1 -79 5 -151 8 -160 3 -9 15 -17 27 -18 23 -2 23 -1 22 115 -1 132 5 159 38 164 13 2 24 11 26 22 2 10 13 28 23 39 16 17 19 36 19 109 0 48 -2 88 -4 88 -2 0 -30 -28 -61 -62z"/>
<path d="M119 592 c-79 -85 -89 -122 -89 -319 0 -118 3 -164 13 -170 18 -12 247 -61 247 -53 0 4 -55 18 -122 32 l-123 24 0 179 c0 205 5 223 92 316 25 27 43 49 40 49 -2 0 -29 -26 -58 -58z"/>
<path d="M555 520 c3 -5 8 -10 11 -10 3 0 2 5 -1 10 -3 6 -8 10 -11 10 -3 0 -2 -4 1 -10z"/>
<path d="M580 470 c0 -7 3 -10 7 -7 3 4 3 10 0 14 -4 3 -7 0 -7 -7z"/>
<path d="M602 263 c-1 -85 -6 -153 -11 -153 -5 0 -16 -3 -25 -6 -13 -5 -16 1 -16 25 0 17 -4 31 -9 31 -26 0 -41 -15 -41 -40 0 -25 -15 -40 -41 -40 -5 0 -9 14 -9 31 0 24 -3 30 -16 25 -9 -3 -19 -6 -24 -6 -5 0 -10 -14 -12 -31 -2 -22 -10 -34 -25 -40 -21 -8 -23 -5 -23 25 0 26 -5 35 -22 40 -13 3 -27 1 -32 -4 -7 -7 -1 -10 16 -10 23 0 27 -5 30 -33 2 -26 7 -31 23 -29 39 6 45 12 45 42 0 20 5 30 15 30 9 0 15 -10 15 -26 0 -23 3 -25 33 -22 28 3 33 7 37 37 7 45 30 54 30 12 0 -34 22 -42 53 -18 16 11 17 30 14 162 l-3 150 -2 -152z"/>
</g>
<g id="layer111" fill="#7488b8" stroke="none">
<path d="M340 636 c0 -91 -2 -105 -17 -109 -17 -4 -17 -5 0 -6 22 -1 23 -41 1 -41 -27 0 -84 -65 -84 -95 0 -39 35 -91 70 -104 20 -7 30 -17 30 -30 0 -26 -3 -26 -57 0 -33 16 -48 32 -64 65 -11 25 -24 42 -29 39 -15 -10 -13 -245 3 -250 40 -13 52 -10 51 15 -2 32 11 40 64 40 41 0 42 1 42 33 0 29 5 34 50 54 59 26 90 70 89 128 0 76 -41 125 -121 149 -16 5 -18 19 -18 106 0 55 3 100 7 100 4 0 44 -35 88 -77 l80 -78 -80 83 c-44 45 -85 82 -92 82 -10 0 -13 -26 -13 -104z m31 -216 c22 -12 26 -59 7 -78 -7 -7 -21 -12 -33 -12 -43 0 -61 53 -29 84 18 19 28 20 55 6z"/>
<path d="M116 589 c-31 -33 -56 -65 -56 -72 0 -6 7 0 16 13 10 14 37 46 63 73 25 26 43 47 39 47 -3 0 -31 -27 -62 -61z"/>
<path d="M185 598 c-26 -29 -59 -78 -73 -108 -24 -51 -26 -64 -25 -193 2 -158 5 -172 35 -174 23 -2 23 -1 22 115 -1 132 5 159 38 164 15 2 24 11 26 24 2 12 12 30 23 40 16 14 19 31 19 101 0 45 -4 83 -9 83 -5 0 -31 -24 -56 -52z"/>
<path d="M41 469 c-16 -46 -15 -355 2 -366 18 -12 247 -61 247 -53 0 4 -55 18 -122 31 l-123 25 -3 164 c-1 95 2 177 8 194 5 16 8 31 6 33 -2 2 -9 -10 -15 -28z"/>
<path d="M590 440 c0 -7 3 -10 7 -7 3 4 3 10 0 14 -4 3 -7 0 -7 -7z"/>
<path d="M538 124 c3 -27 8 -34 26 -33 16 1 17 2 4 6 -11 3 -18 14 -18 28 0 13 -4 26 -8 29 -4 2 -6 -11 -4 -30z"/>
<path d="M498 118 c-2 -25 -8 -34 -25 -36 -18 -3 -23 1 -23 21 0 30 -6 36 -30 30 -12 -3 -20 -16 -22 -35 -2 -21 -10 -33 -25 -39 -21 -8 -23 -5 -23 25 0 26 -5 35 -22 40 -13 3 -27 1 -32 -4 -7 -7 -1 -10 16 -10 23 0 27 -5 30 -32 2 -27 7 -32 23 -30 39 6 45 12 45 42 0 20 5 30 15 30 9 0 15 -10 15 -26 0 -23 3 -25 32 -22 29 3 33 7 39 41 3 20 2 37 -2 37 -4 0 -9 -15 -11 -32z"/>
</g>
<g id="layer112" fill="#7196ca" stroke="none">
<path d="M340 636 c0 -91 -2 -105 -17 -109 -14 -4 -12 -5 5 -6 31 -1 28 -29 -5 -42 -73 -27 -100 -94 -64 -153 12 -19 35 -39 51 -45 20 -7 30 -17 30 -30 0 -26 -3 -26 -57 0 -33 16 -48 32 -64 65 -11 25 -24 42 -29 39 -15 -10 -13 -245 3 -250 40 -13 52 -10 51 15 -2 32 11 40 64 40 41 0 42 1 42 33 0 29 5 34 50 54 135 59 115 232 -32 277 -16 5 -18 19 -18 106 0 55 3 100 7 100 4 0 44 -35 88 -77 l80 -78 -80 83 c-44 45 -85 82 -92 82 -10 0 -13 -26 -13 -104z m31 -216 c22 -12 26 -59 7 -78 -7 -7 -21 -12 -33 -12 -43 0 -61 53 -29 84 18 19 28 20 55 6z"/>
<path d="M183 593 c-83 -97 -87 -108 -91 -276 -4 -172 -1 -192 30 -194 23 -2 23 -1 22 105 -3 149 2 170 35 174 18 2 27 10 29 24 2 12 12 30 23 40 16 14 19 31 19 101 0 45 -4 83 -9 83 -4 0 -30 -26 -58 -57z"/>
<path d="M32 283 c-1 -128 1 -174 11 -180 18 -12 247 -61 247 -53 0 4 -55 18 -122 31 l-123 24 -5 175 -6 175 -2 -172z"/>
<path d="M507 143 c-4 -3 -7 -19 -7 -35 0 -23 -4 -28 -25 -28 -20 0 -25 5 -25 25 0 20 -5 25 -25 25 -22 0 -25 -4 -25 -34 0 -28 -4 -34 -25 -38 -23 -5 -25 -2 -25 27 0 25 -5 34 -22 39 -13 3 -27 1 -32 -4 -7 -7 -1 -10 16 -10 23 0 27 -5 30 -32 2 -27 7 -32 23 -30 39 6 45 12 45 42 0 20 5 30 15 30 9 0 15 -10 15 -26 0 -23 3 -25 32 -22 29 3 33 7 39 41 6 39 6 41 -4 30z"/>
</g>
<g id="layer113" fill="#939dc3" stroke="none">
<path d="M340 636 c0 -91 -2 -105 -17 -109 -14 -4 -12 -5 5 -6 31 -1 28 -29 -5 -42 -62 -23 -94 -80 -74 -131 13 -34 50 -68 73 -68 13 0 18 -8 18 -25 0 -30 -9 -31 -61 -5 -28 15 -46 34 -62 66 l-22 46 -7 -38 c-4 -22 -7 -78 -7 -125 -1 -91 3 -99 50 -99 16 0 19 6 17 27 -3 27 -1 28 50 31 51 3 52 4 52 35 0 29 6 34 50 54 135 59 115 232 -32 277 -16 5 -18 19 -18 106 0 55 3 100 7 100 4 0 44 -35 88 -77 l80 -78 -80 83 c-44 45 -85 82 -92 82 -10 0 -13 -26 -13 -104z m31 -216 c22 -12 26 -59 7 -78 -7 -7 -21 -12 -33 -12 -43 0 -61 53 -29 84 18 19 28 20 55 6z"/>
<path d="M125 598 l-50 -53 53 50 c48 46 57 55 49 55 -1 0 -25 -24 -52 -52z"/>
<path d="M183 593 c-85 -98 -87 -106 -91 -287 -3 -144 -2 -161 14 -173 35 -26 39 -16 38 95 -3 147 2 172 32 172 17 0 25 7 30 24 3 14 14 32 25 42 16 14 19 31 19 101 0 45 -4 83 -9 83 -4 0 -30 -26 -58 -57z"/>
<path d="M600 258 c-3 -86 -2 -154 3 -149 4 4 6 75 5 157 l-3 149 -5 -157z"/>
<path d="M507 143 c-4 -3 -7 -19 -7 -35 0 -23 -4 -28 -25 -28 -20 0 -25 5 -25 26 0 21 -4 25 -22 22 -18 -2 -24 -11 -26 -35 -2 -17 -9 -34 -15 -36 -7 -2 -5 -3 3 -3 9 1 16 13 18 34 4 39 32 45 32 6 0 -23 3 -25 32 -22 29 3 33 7 39 41 6 39 6 41 -4 30z"/>
<path d="M541 123 c-1 -28 2 -33 22 -32 15 1 17 3 5 6 -9 2 -19 16 -21 31 -4 24 -4 24 -6 -5z"/>
<path d="M145 75 c28 -7 59 -13 70 -13 11 0 -2 6 -30 13 -27 7 -59 13 -70 13 -11 0 3 -6 30 -13z"/>
<path d="M240 56 c0 -2 11 -6 25 -8 13 -3 22 -1 19 3 -5 9 -44 13 -44 5z"/>
</g>
<g id="layer114" fill="#9ea5bd" stroke="none">
<path d="M225 698 l-40 -43 43 40 c23 21 42 40 42 42 0 8 -9 0 -45 -39z"/>
<path d="M344 635 c0 -60 1 -84 3 -52 2 32 2 81 0 110 -2 29 -3 3 -3 -58z"/>
<path d="M445 650 c38 -38 72 -70 74 -70 3 0 -26 32 -64 70 -38 39 -72 70 -74 70 -3 0 26 -31 64 -70z"/>
<path d="M184 588 c-83 -90 -94 -124 -94 -304 0 -131 2 -144 19 -154 11 -5 23 -10 28 -10 4 0 8 62 8 138 l0 137 27 3 c18 2 29 11 34 25 3 12 15 31 26 43 16 18 18 34 16 104 l-3 83 -61 -65z"/>
<path d="M89 563 c-13 -16 -12 -17 4 -4 9 7 17 15 17 17 0 8 -8 3 -21 -13z"/>
<path d="M535 550 c3 -5 8 -10 11 -10 3 0 2 5 -1 10 -3 6 -8 10 -11 10 -3 0 -2 -4 1 -10z"/>
<path d="M65 529 c-4 -6 -5 -12 -2 -15 2 -3 7 2 10 11 7 17 1 20 -8 4z"/>
<path d="M313 523 c4 -3 10 -3 14 0 3 4 0 7 -7 7 -7 0 -10 -3 -7 -7z"/>
<path d="M350 501 c0 -13 -9 -21 -29 -26 -74 -16 -100 -108 -46 -165 16 -16 37 -30 47 -30 13 0 18 -8 18 -25 0 -30 -9 -31 -61 -5 -28 15 -46 34 -62 66 l-22 46 -7 -38 c-4 -22 -7 -78 -7 -125 -1 -91 3 -99 50 -99 16 0 19 6 17 28 -3 26 -1 27 50 30 51 3 52 4 52 35 0 29 6 34 49 53 58 26 82 58 88 118 6 53 -23 113 -67 139 -39 23 -70 22 -70 -2z m21 -81 c22 -12 26 -59 7 -78 -7 -7 -21 -12 -33 -12 -43 0 -61 53 -29 84 18 19 28 20 55 6z"/>
<path d="M40 470 c0 -7 3 -10 7 -7 3 4 3 10 0 14 -4 3 -7 0 -7 -7z"/>
<path d="M407 124 c-4 -4 -7 -20 -7 -35 0 -16 -6 -30 -15 -32 -11 -4 -10 -4 2 -3 13 1 19 11 21 34 4 38 29 43 35 7 4 -23 4 -23 3 2 -1 27 -24 42 -39 27z"/>
<path d="M563 93 c4 -3 10 -3 14 0 3 4 0 7 -7 7 -7 0 -10 -3 -7 -7z"/>
</g>
<g id="layer115" fill="#7eb0e3" stroke="none">
<path d="M194 598 c-90 -95 -98 -119 -102 -297 -4 -140 -2 -156 14 -168 36 -26 39 -17 39 124 l0 138 27 3 c17 2 29 11 34 25 4 12 15 34 26 49 15 22 18 41 16 104 l-3 76 -51 -54z"/>
<path d="M350 502 c0 -11 -12 -22 -34 -30 -47 -17 -68 -45 -70 -91 0 -31 6 -47 29 -71 16 -16 37 -30 47 -30 13 0 18 -8 18 -25 0 -30 -9 -31 -61 -5 -28 15 -46 34 -62 66 l-22 46 -7 -38 c-4 -22 -7 -78 -7 -125 -1 -91 3 -99 50 -99 16 0 19 6 17 28 -3 26 -1 27 50 30 51 3 52 4 52 35 0 29 5 34 45 51 85 34 118 126 75 205 -33 57 -120 96 -120 53z m28 -88 c26 -18 28 -41 5 -66 -33 -37 -83 -17 -83 34 0 43 39 60 78 32z"/>
<path d="M401 93 c-1 -21 -7 -33 -18 -36 -17 -4 -17 -5 0 -6 21 -1 30 18 24 51 -3 18 -5 16 -6 -9z"/>
<path d="M58 93 c6 -2 18 -2 25 0 6 3 1 5 -13 5 -14 0 -19 -2 -12 -5z"/>
<path d="M165 70 c17 -4 39 -8 50 -8 16 0 15 2 -5 8 -14 4 -36 8 -50 8 -22 0 -22 -1 5 -8z"/>
</g>
<g id="layer116" fill="#b8c4da" stroke="none">
<path d="M244 718 l-19 -23 23 19 c12 11 22 21 22 23 0 8 -8 2 -26 -19z"/>
<path d="M475 620 c21 -22 41 -40 44 -40 3 0 -13 18 -34 40 -21 22 -41 40 -44 40 -3 0 13 -18 34 -40z"/>
<path d="M194 598 c-90 -95 -98 -119 -102 -301 -4 -169 -7 -159 42 -170 4 -1 9 59 10 133 l1 135 27 3 c17 2 29 11 34 25 4 12 15 34 26 49 15 22 18 41 16 104 l-3 76 -51 -54z"/>
<path d="M84 558 c-4 -7 -3 -8 4 -4 12 7 16 16 8 16 -3 0 -8 -5 -12 -12z"/>
<path d="M350 502 c0 -11 -12 -22 -34 -30 -49 -18 -69 -45 -69 -94 0 -34 6 -47 32 -70 17 -15 40 -28 51 -28 24 0 28 -38 5 -46 -27 -11 -97 38 -122 85 l-23 44 0 -125 c0 -106 3 -127 16 -132 27 -10 33 -7 36 22 3 25 7 27 56 30 52 3 52 3 52 36 0 30 4 35 45 50 85 33 119 126 75 205 -33 57 -120 96 -120 53z m28 -88 c26 -18 28 -41 5 -66 -33 -37 -83 -17 -83 34 0 43 39 60 78 32z"/>
<path d="M34 280 c0 -96 2 -136 3 -87 2 48 2 126 0 175 -1 48 -3 8 -3 -88z"/>
<path d="M604 260 c0 -85 2 -120 3 -77 2 42 2 112 0 155 -1 42 -3 7 -3 -78z"/>
<path d="M507 143 c-4 -3 -7 -19 -7 -34 0 -16 -6 -30 -15 -32 -11 -4 -10 -5 2 -3 12 1 20 13 24 39 6 39 6 41 -4 30z"/>
<path d="M542 120 c0 -19 2 -27 5 -17 2 9 2 25 0 35 -3 9 -5 1 -5 -18z"/>
<path d="M426 123 c7 -4 14 -19 17 -33 4 -22 5 -21 4 4 -1 17 -9 31 -17 33 -10 3 -11 2 -4 -4z"/>
<path d="M313 113 c22 -4 27 -9 27 -33 0 -16 3 -31 8 -34 4 -2 6 13 4 35 -4 37 -6 39 -36 38 -30 -2 -30 -2 -3 -6z"/>
<path d="M108 83 c7 -3 16 -2 19 1 4 3 -2 6 -13 5 -11 0 -14 -3 -6 -6z"/>
<path d="M148 73 c7 -3 16 -2 19 1 4 3 -2 6 -13 5 -11 0 -14 -3 -6 -6z"/>
<path d="M248 53 c7 -3 16 -2 19 1 4 3 -2 6 -13 5 -11 0 -14 -3 -6 -6z"/>
</g>
<g id="layer117" fill="#b3cae7" stroke="none">
<path d="M181 583 c-75 -84 -89 -129 -90 -301 -2 -140 -1 -142 21 -151 13 -5 24 -8 26 -6 1 1 3 64 4 139 l0 136 29 0 c18 0 29 5 29 14 0 7 11 30 25 50 21 31 25 49 25 106 0 39 -4 70 -9 70 -5 0 -32 -26 -60 -57z"/>
<path d="M350 502 c0 -11 -12 -22 -34 -30 -49 -18 -69 -45 -69 -94 0 -34 6 -47 32 -70 17 -15 40 -28 51 -28 24 0 28 -38 5 -46 -27 -11 -97 38 -122 85 l-23 44 0 -125 c0 -106 3 -127 16 -132 27 -10 33 -7 36 22 3 25 7 27 56 30 52 3 52 3 52 36 0 30 4 35 43 50 82 31 119 129 77 205 -33 57 -120 96 -120 53z m28 -88 c26 -18 28 -41 5 -66 -33 -37 -83 -17 -83 34 0 43 39 60 78 32z"/>
<path d="M290 116 c0 -2 13 -6 29 -8 17 -2 28 -1 25 4 -5 8 -54 12 -54 4z"/>
<path d="M401 93 c0 -17 -7 -34 -13 -36 -10 -4 -10 -6 0 -6 16 -1 25 21 19 51 -3 18 -5 16 -6 -9z"/>
<path d="M53 93 c4 -3 10 -3 14 0 3 4 0 7 -7 7 -7 0 -10 -3 -7 -7z"/>
<path d="M198 63 c7 -3 16 -2 19 1 4 3 -2 6 -13 5 -11 0 -14 -3 -6 -6z"/>
</g>
<g id="layer118" fill="#ccced8" stroke="none">
<path d="M181 583 c-77 -87 -90 -129 -88 -303 2 -142 2 -145 25 -148 22 -3 22 -3 22 132 0 138 1 141 37 137 7 -1 21 16 32 38 12 22 25 42 31 46 13 8 13 155 1 155 -5 0 -32 -26 -60 -57z"/>
<path d="M490 605 c13 -14 26 -25 28 -25 3 0 -5 11 -18 25 -13 14 -26 25 -28 25 -3 0 5 -11 18 -25z"/>
<path d="M350 501 c0 -11 -9 -21 -23 -25 -13 -3 -36 -15 -50 -27 -54 -42 -26 -149 43 -164 23 -5 30 -12 30 -30 0 -25 2 -26 60 -4 34 13 71 69 77 117 4 30 0 50 -17 81 -33 58 -120 96 -120 52z m28 -87 c26 -18 28 -41 5 -66 -33 -37 -83 -17 -83 34 0 43 39 60 78 32z"/>
<path d="M33 410 c0 -25 2 -35 4 -22 2 12 2 32 0 45 -2 12 -4 2 -4 -23z"/>
<path d="M600 400 c0 -7 3 -10 7 -7 3 4 3 10 0 14 -4 3 -7 0 -7 -7z"/>
</g>
<g id="layer119" fill="#d2daeb" stroke="none">
<path d="M294 620 c0 -58 1 -81 3 -52 2 28 2 76 0 105 -2 28 -3 5 -3 -53z"/>
<path d="M199 603 c-97 -105 -108 -138 -106 -326 2 -139 2 -142 25 -145 22 -3 22 -3 22 132 0 137 1 141 37 137 6 -1 23 20 37 45 27 48 41 140 27 177 -6 15 -11 12 -42 -20z"/>
<path d="M495 600 c10 -11 20 -20 23 -20 3 0 -3 9 -13 20 -10 11 -20 20 -23 20 -3 0 3 -9 13 -20z"/>
<path d="M350 501 c0 -11 -9 -21 -23 -25 -13 -3 -36 -15 -50 -27 -54 -42 -26 -149 43 -164 23 -5 30 -12 30 -30 0 -25 2 -26 60 -4 34 13 71 69 77 117 4 30 0 50 -17 81 -33 58 -120 96 -120 52z m38 -84 c15 -10 16 -59 0 -75 -27 -27 -98 -2 -98 35 0 32 19 50 52 49 18 -1 39 -5 46 -9z"/>
<path d="M31 434 c0 -11 3 -14 6 -6 3 7 2 16 -1 19 -3 4 -6 -2 -5 -13z"/>
<path d="M190 234 l0 -122 25 -4 c22 -5 25 -2 25 22 0 33 12 39 66 35 37 -3 39 -2 39 28 0 26 -5 32 -39 44 -48 16 -72 37 -97 83 l-18 35 -1 -121z"/>
<path d="M34 225 c0 -66 1 -92 3 -57 2 34 2 88 0 120 -2 31 -3 3 -3 -63z"/>
<path d="M308 113 c6 -2 18 -2 25 0 6 3 1 5 -13 5 -14 0 -19 -2 -12 -5z"/>
<path d="M494 78 c-4 -7 -3 -8 4 -4 7 4 12 9 12 12 0 8 -9 4 -16 -8z"/>
<path d="M143 73 c4 -3 10 -3 14 0 3 4 0 7 -7 7 -7 0 -10 -3 -7 -7z"/>
<path d="M394 58 c-4 -7 -3 -8 4 -4 12 7 16 16 8 16 -3 0 -8 -5 -12 -12z"/>
</g>
<g id="layer120" fill="#fcfdfd" stroke="none">
<path d="M187 584 c-75 -83 -87 -119 -92 -286 -4 -142 1 -168 31 -168 10 0 14 30 16 137 l3 138 28 3 c15 2 27 8 27 14 0 5 8 22 19 36 19 28 32 122 22 158 -5 19 -11 16 -54 -32z"/>
<path d="M348 498 c-2 -13 -9 -24 -15 -24 -7 -1 -17 -2 -21 -3 -5 0 -20 -11 -35 -23 -21 -19 -25 -31 -23 -69 2 -55 15 -74 62 -91 22 -8 34 -19 34 -30 0 -38 75 -12 108 37 34 50 38 99 12 150 -33 64 -115 100 -122 53z m40 -81 c15 -10 16 -59 0 -75 -27 -27 -98 -2 -98 35 0 32 19 50 52 49 18 -1 39 -5 46 -9z"/>
<path d="M193 235 c2 -116 3 -120 25 -123 18 -3 22 1 22 22 0 29 31 42 78 33 25 -5 27 -3 27 26 0 27 -4 32 -35 40 -41 10 -87 50 -106 92 -12 27 -13 18 -11 -90z"/>
</g>


</svg>